<svg width="500" height="500" viewBox="0 0 500 500" fill="none" xmlns="http://www.w3.org/2000/svg">
  <!-- White Q icon on black background -->
  <rect width="500" height="500" fill="#000000"/>
  <path d="M250 150C194.772 150 150 194.772 150 250C150 305.228 194.772 350 250 350C277.614 350 302.614 338.807 320.711 320.711L280 280L320.711 239.289C338.807 257.386 350 282.386 350 310V250C350 194.772 305.228 150 250 150ZM250 190C283.137 190 310 216.863 310 250C310 283.137 283.137 310 250 310C216.863 310 190 283.137 190 250C190 216.863 216.863 190 250 190Z" fill="white"/>
</svg>
