<svg width="500" height="500" viewBox="0 0 500 500" fill="none" xmlns="http://www.w3.org/2000/svg">
  <!-- KRONIQ full logo on black background -->
  <rect width="500" height="500" fill="#000000"/>

  <!-- K -->
  <path d="M65 230H85V265L115 230H140L105 270L142 310H117L85 275V310H65V230Z" fill="white"/>

  <!-- R -->
  <path d="M118 230H165C175 230 183 238 183 248V258C183 265 178 271 171 274L185 310H163L151 276H138V310H118V230ZM138 246V260H165V246H138Z" fill="white"/>

  <!-- O -->
  <path d="M175 230C197.091 230 215 247.909 215 270C215 292.091 197.091 310 175 310C152.909 310 135 292.091 135 270C135 247.909 152.909 230 175 230ZM175 246C161.745 246 151 256.745 151 270C151 283.255 161.745 294 175 294C188.255 294 199 283.255 199 270C199 256.745 188.255 246 175 246Z" fill="white"/>

  <!-- N -->
  <path d="M245 230H265L295 275V230H315V310H295L265 265V310H245V230Z" fill="white"/>

  <!-- I -->
  <path d="M283 230H303V310H283V230Z" fill="white"/>

  <!-- Q -->
  <path d="M350 230C372.091 230 390 247.909 390 270C390 292.091 372.091 310 350 310C327.909 310 310 292.091 310 270C310 247.909 327.909 230 350 230ZM350 246C336.745 246 326 256.745 326 270C326 283.255 336.745 294 350 294C363.255 294 374 283.255 374 270C374 256.745 363.255 246 350 246ZM365 285L385 305L375 315L355 295L365 285Z" fill="white"/>
</svg>
